# xmcd
#
# Track frame offsets:
#	150
#	12331
#	35735
#	49457
#	67958
#	82919
#	98315
#	118386
#	140537
#	164538
#	180488
#	199452
#	201810
#	233258
#	250497
#	271360
#	281718
#	299605
#	318224
#
# Disc length: 4524 seconds
#
# Revision: 0
# Processed by: cddbd v1.5.2PL0 Copyright (c) Steve Scherf et al.
# Submitted via: EasyCDDAExtractor 11.0.2.1
#
DISCID=1b11aa13
DTITLE=J.Unknown - J.U.S.T.
DYEAR=1900
DGENRE=Rap
TTITLE0=Intro
TTITLE1=He's Unknown
TTITLE2=Can U Feel
TTITLE3=Here We Are (Feat. Hostyle)
TTITLE4=Time 2 Ball (Feat. 2 Piece)
TTITLE5=Hit Me Up
TTITLE6=5ths I Brung
TTITLE7=Nuthin But Luv (Feat. Ms. Murda)
TTITLE8=Love Hip Hop (Feat. Tony and M.I)
TTITLE9=So Wrong (Feat. MIllion
TTITLE10=How Many Niggaz (Feat. Thug Poet)
TTITLE11=Shots (Skit)
TTITLE12=Fuck That (Feat. N.R.O.N)
TTITLE13=Love You Down (Feat. Nia)
TTITLE14=Murda (Feat. Capt'n Nappy)
TTITLE15=Take Me Away
TTITLE16=Goodbye (Feat. 2 Piece)
TTITLE17=The Recipe (Feat. Mr. Joker)
TTITLE18=Out Of My Mind
EXTD=
EXTT0=
EXTT1=
EXTT2=
EXTT3=
EXTT4=
EXTT5=
EXTT6=
EXTT7=
EXTT8=
EXTT9=
EXTT10=
EXTT11=
EXTT12=
EXTT13=
EXTT14=
EXTT15=
EXTT16=
EXTT17=
EXTT18=
PLAYORDER=
